<?xml version="1.0" standalone="no"?>
<!DOCTYPE svg PUBLIC "-//W3C//DTD SVG 20010904//EN"
 "http://www.w3.org/TR/2001/REC-SVG-20010904/DTD/svg10.dtd">
<svg version="1.0" xmlns="http://www.w3.org/2000/svg"
 width="1200.000000pt" height="1200.000000pt" viewBox="0 0 1200.000000 1200.000000"
 preserveAspectRatio="xMidYMid meet">

<g transform="translate(0.000000,1200.000000) scale(0.100000,-0.100000)"
fill="#000000" stroke="none">
<path d="M827 11984 c-208 -37 -383 -129 -532 -279 -129 -129 -214 -275 -264
-454 l-26 -96 0 -5155 0 -5155 26 -96 c50 -179 135 -325 264 -454 152 -153
325 -242 540 -280 78 -13 664 -15 5165 -15 4501 0 5087 2 5165 15 215 38 388
127 540 280 129 129 214 275 264 454 l26 96 0 5150 0 5150 -22 88 c-87 340
-332 606 -660 716 -162 54 192 51 -5322 50 -4318 -1 -5098 -3 -5164 -15z
m3748 -3008 c1155 -3 2762 -2 3570 2 809 4 1473 5 1478 1 4 -3 -40 -109 -99
-235 -58 -126 -161 -350 -229 -499 -67 -148 -138 -304 -158 -345 -19 -41 -53
-114 -75 -161 -31 -67 -45 -87 -63 -91 -13 -3 -951 -6 -2084 -7 -1133 -2
-2063 -5 -2067 -7 -5 -3 -8 -10 -8 -15 0 -12 -480 -1133 -580 -1354 -14 -33
-89 -205 -165 -383 -76 -178 -143 -321 -149 -319 -6 2 -38 66 -72 143 -33 76
-91 202 -129 279 -37 77 -109 228 -160 335 -51 107 -116 245 -145 305 -29 61
-67 142 -85 180 -37 79 -94 200 -235 495 -176 369 -202 424 -235 495 -18 39
-67 141 -109 229 -42 87 -76 159 -76 161 0 2 -37 81 -83 176 -46 96 -101 212
-123 259 -21 47 -69 145 -106 219 -37 74 -65 138 -61 143 3 5 37 7 77 4 39 -3
1016 -8 2171 -10z m2355 -1941 c0 -8 -13 -43 -30 -77 -65 -139 -250 -564 -250
-576 0 -10 172 -12 881 -12 485 1 883 0 885 -3 2 -2 -48 -113 -112 -248 -64
-134 -153 -325 -199 -424 -45 -99 -100 -218 -121 -265 -21 -47 -75 -161 -120
-255 l-80 -170 -878 -5 c-768 -4 -880 -7 -887 -20 -4 -8 -80 -181 -170 -385
-89 -203 -209 -476 -267 -605 -57 -129 -131 -296 -164 -370 -32 -74 -65 -148
-72 -165 -8 -16 -43 -95 -79 -175 -35 -80 -72 -166 -82 -192 -10 -27 -22 -48
-26 -48 -14 0 -34 37 -122 230 -47 102 -117 251 -155 332 -84 174 -116 241
-286 612 -53 114 -96 209 -96 211 0 2 -36 78 -80 169 -44 91 -80 170 -80 176
0 6 9 28 20 48 19 35 230 500 230 507 0 2 38 86 84 187 46 101 108 242 139
313 31 72 77 175 102 230 26 55 71 154 100 220 29 66 72 163 95 215 23 52 52
118 65 145 13 28 44 97 70 155 57 130 94 210 104 230 7 13 107 16 772 20 420
3 774 6 787 8 14 1 22 -3 22 -13z"/>
</g>
</svg>
